# xmcd
#
# Track frame offsets:
#	150
#	11049
#	27036
#	51103
#	66242
#	84770
#	106437
#	112022
#	137468
#	144530
#	160380
#	200128
#
# Disc length: 3439 seconds
#
# Revision: 1
# Processed by: cddbd v1.5.2PL0 Copyright (c) Steve Scherf et al.
# Submitted via: EasyCDDAExtractor 16.1.0.1
#
DISCID=a30d6d0c
DTITLE=DCMC - Опле Раз
DYEAR=2003
DGENRE=Rap
TTITLE0=Intro
TTITLE1=Посыл
TTITLE2=Бам Вам По Головам с Ваней
TTITLE3=Рэп Монстр (скит)
TTITLE4=Стик Чек с Чеком
TTITLE5=International Style
TTITLE6=ХипХоп Дабро (скит)
TTITLE7=ДиСи ДаБро с Раджем и Чиллой
TTITLE8=100 Слои - Опле Раз (скит)
TTITLE9=Опле 1
TTITLE10=Universe Style
TTITLE11=Video Bonus
EXTD=
EXTT0=
EXTT1=
EXTT2=
EXTT3=
EXTT4=
EXTT5=
EXTT6=
EXTT7=
EXTT8=
EXTT9=
EXTT10=
EXTT11=
PLAYORDER=
